HIERARCHY
ROOT Hips
{
	OFFSET 0.00000 0.00000 0.00000
	CHANNELS 6 Xposition Yposition Zposition Zrotation Yrotation Xrotation 
	JOINT LHipJoint
	{
		OFFSET 0 0 0
		CHANNELS 3 Zrotation Yrotation Xrotation
		JOINT LeftUpLeg
		{
			OFFSET 1.53139 -1.83434 0.76626
			CHANNELS 3 Zrotation Yrotation Xrotation
			JOINT LeftLeg
			{
				OFFSET 2.56112 -7.03663 0.00000
				CHANNELS 3 Zrotation Yrotation Xrotation
				JOINT LeftFoot
				{
					OFFSET 2.59983 -7.14299 0.00000
					CHANNELS 3 Zrotation Yrotation Xrotation
					JOINT LeftToeBase
					{
						OFFSET 0.13742 -0.37757 2.00054
						CHANNELS 3 Zrotation Yrotation Xrotation
						End Site
						{
							OFFSET 0.00000 -0.00000 1.02897
						}
					}
				}
			}
		}
	}
	JOINT RHipJoint
	{
		OFFSET 0 0 0
		CHANNELS 3 Zrotation Yrotation Xrotation
		JOINT RightUpLeg
		{
			OFFSET -1.40122 -1.83435 0.76627
			CHANNELS 3 Zrotation Yrotation Xrotation
			JOINT RightLeg
			{
				OFFSET -2.54052 -6.98003 0.00000
				CHANNELS 3 Zrotation Yrotation Xrotation
				JOINT RightFoot
				{
					OFFSET -2.63179 -7.23079 0.00000
					CHANNELS 3 Zrotation Yrotation Xrotation
					JOINT RightToeBase
					{
						OFFSET -0.24131 -0.66299 2.03908
						CHANNELS 3 Zrotation Yrotation Xrotation
						End Site
						{
							OFFSET -0.00000 -0.00000 1.07391
						}
					}
				}
			}
		}
	}
	JOINT LowerBack
	{
		OFFSET 0 0 0
		CHANNELS 3 Zrotation Yrotation Xrotation
		JOINT Spine
		{
			OFFSET 0.01174 2.10302 -0.29778
			CHANNELS 3 Zrotation Yrotation Xrotation
			JOINT Spine1
			{
				OFFSET 0.00772 2.13227 -0.01247
				CHANNELS 3 Zrotation Yrotation Xrotation
				JOINT Neck
				{
					OFFSET 0 0 0
					CHANNELS 3 Zrotation Yrotation Xrotation
					JOINT Neck1
					{
						OFFSET -0.09219 1.60848 0.31481
						CHANNELS 3 Zrotation Yrotation Xrotation
						JOINT Head
						{
							OFFSET 0.13974 1.65456 -0.31134
							CHANNELS 3 Zrotation Yrotation Xrotation
							End Site
							{
								OFFSET 0.04742 1.69515 -0.14578
							}
						}
					}
				}
				JOINT LeftShoulder
				{
					OFFSET 0 0 0
					CHANNELS 3 Zrotation Yrotation Xrotation
					JOINT LeftArm
					{
						OFFSET 3.24909 1.02882 -0.23993
						CHANNELS 3 Zrotation Yrotation Xrotation
						JOINT LeftForeArm
						{
							OFFSET 5.32955 -0.00000 -0.00000
							CHANNELS 3 Zrotation Yrotation Xrotation
							JOINT LeftHand
							{
								OFFSET 3.69232 -0.00000 -0.00000
								CHANNELS 3 Zrotation Yrotation Xrotation
								JOINT LeftFingerBase
								{
									OFFSET 0 0 0
									CHANNELS 3 Zrotation Yrotation Xrotation
									JOINT LeftHandIndex1
									{
										OFFSET 0.53660 -0.00000 -0.00000
										CHANNELS 3 Zrotation Yrotation Xrotation
										End Site
										{
											OFFSET 0.43262 -0.00000 -0.00000
										}
									}
								}
								JOINT LThumb
								{
									OFFSET 0 0 0
									CHANNELS 3 Zrotation Yrotation Xrotation
									End Site
									{
										OFFSET 0.43922 -0.00000 0.43922
									}
								}
							}
						}
					}
				}
				JOINT RightShoulder
				{
					OFFSET 0 0 0
					CHANNELS 3 Zrotation Yrotation Xrotation
					JOINT RightArm
					{
						OFFSET -3.21387 0.93002 -0.34594
						CHANNELS 3 Zrotation Yrotation Xrotation
						JOINT RightForeArm
						{
							OFFSET -5.23431 -0.00000 0.00000
							CHANNELS 3 Zrotation Yrotation Xrotation
							JOINT RightHand
							{
								OFFSET -3.55301 -0.00000 -0.00000
								CHANNELS 3 Zrotation Yrotation Xrotation
								JOINT RightFingerBase
								{
									OFFSET 0 0 0
									CHANNELS 3 Zrotation Yrotation Xrotation
									JOINT RightHandIndex1
									{
										OFFSET -0.77252 -0.00000 -0.00000
										CHANNELS 3 Zrotation Yrotation Xrotation
										End Site
										{
											OFFSET -0.62283 -0.00000 -0.00000
										}
									}
								}
								JOINT RThumb
								{
									OFFSET 0 0 0
									CHANNELS 3 Zrotation Yrotation Xrotation
									End Site
									{
										OFFSET -0.63234 -0.00000 0.63234
									}
								}
							}
						}
					}
				}
			}
		}
	}
}
MOTION
Frames: 5
Frame Time: 0.0408163
0.00 0.00 0.00 -4.6346 -44.0773 -0.6041 0.0000 0.0000 0.0000 2.6065 28.4379 -86.2251 34.3504 14.0800 136.4414 -7.8221 -44.4180 6.5528 0.0449 -1.3671 -3.7595 0.0000 0.0000 0.0000 10.4903 -42.4246 -91.9214 -35.6218 -12.6473 141.9379 3.1348 33.1907 -3.7888 -0.7202 5.4230 -15.1191 3.1844 5.9079 37.7278 2.5842 8.2944 8.9279 -2.0954 3.5863 -8.4937 -13.6014 -4.8033 -23.9336 4.7181 -3.0949 28.1867 3.5934 -2.1772 13.9527 -0.0000 0.0000 0.0000 -70.0753 -0.9053 62.1341 89.4722 -59.9989 -59.5429 -0.0000 -0.0000 20.7827 60.3188 17.6036 27.9514 -7.1250 0.0000 -0.0000 39.1747 58.0111 13.8484 -0.0000 0.0000 0.0000 86.7135 50.8373 38.6805 -10.5041 17.5242 -1.6234 0.0000 0.0000 26.2940 -51.3646 -0.3018 0.3775 7.1250 -0.0000 -0.0000 -19.3386 -30.1161 -7.4093
0.00 0.00 0.00 -4.9098 -41.2495 1.5685 0.0000 0.0000 0.0000 2.7582 14.2589 -76.6662 30.4613 17.1421 122.0650 -6.7590 -41.3431 9.1028 0.0460 -1.3848 -3.8081 0.0000 0.0000 0.0000 11.2955 -31.8895 -81.5289 -32.4668 -15.7649 129.1367 2.5050 29.7743 -2.9580 -0.7634 5.5795 -15.5691 3.0067 5.5086 36.0074 1.9490 7.7846 7.8737 -2.4478 3.3869 -9.0128 -12.5803 -3.1553 -25.8006 3.6436 -0.4637 27.3380 3.4636 -1.0414 13.6615 -0.0000 -0.0000 0.0000 -71.1636 -3.7617 63.2617 76.4636 -59.2962 -48.3048 -0.0000 -0.0000 17.4812 55.3876 15.6053 21.2943 -7.1250 0.0000 -0.0000 30.0730 53.5092 6.7722 -0.0000 -0.0000 0.0000 84.9196 50.2411 42.6464 -14.0088 22.7472 -2.8315 0.0000 0.0000 20.6040 -50.8502 -0.6631 0.8144 7.1250 -0.0000 -0.0000 -19.0561 -30.6678 -7.0218
0.00 0.00 0.00 -4.9493 -38.8121 2.7708 0.0000 0.0000 0.0000 1.0116 6.9328 -67.8810 26.0012 19.1137 107.7993 -6.2378 -40.4590 6.6634 0.0115 -0.6932 -1.9050 0.0000 0.0000 0.0000 13.6254 -25.8851 -73.1164 -28.8714 -17.9974 116.8016 1.6592 25.3055 -3.8398 -0.6490 5.1532 -14.3459 2.5820 5.2332 33.6091 1.3317 7.3076 7.0098 -2.6428 3.2175 -9.1867 -11.3631 -1.4366 -27.1574 2.7504 1.9707 26.7492 3.3504 0.0387 13.4590 0.0000 0.0000 0.0000 -73.1237 -6.0757 63.8448 62.7626 -57.0022 -36.6491 -0.0000 -0.0000 15.8522 51.0672 15.1824 17.9620 -7.1250 0.0000 -0.0000 24.4470 51.6432 4.2101 0.0000 0.0000 0.0000 84.1855 46.9790 46.4598 -18.0128 28.1736 -4.5553 0.0000 0.0000 17.3210 -50.4340 -2.0997 2.5389 7.1250 -0.0000 -0.0000 -19.1587 -32.8052 -6.0171
0.00 0.00 0.00 -5.1788 -35.9029 3.8055 0.0000 0.0000 0.0000 -1.3713 2.8226 -59.2303 20.8078 19.9843 92.3624 -5.3935 -38.4497 4.8575 0.0866 1.8976 5.2229 0.0000 0.0000 0.0000 16.1701 -22.4442 -64.4702 -24.4287 -19.5231 103.0483 1.1503 22.2500 -4.9102 -0.6757 5.2561 -14.6404 2.1570 4.9749 30.9110 0.8453 6.8800 6.0799 -2.8697 3.0455 -9.8543 -11.0543 -0.0954 -27.8073 3.0302 3.7589 26.8629 3.7536 0.8828 13.4658 -0.0000 0.0000 0.0000 -74.4358 -8.4918 66.0451 48.8518 -52.5218 -25.2601 -0.0000 -0.0000 15.9714 47.0363 14.8726 15.4079 -7.1250 0.0000 -0.0000 19.7337 50.2037 2.6206 -0.0000 0.0000 0.0000 83.9674 40.5780 49.3118 -23.0485 34.1418 -7.1655 0.0000 0.0000 13.6153 -47.3203 -0.5692 0.6172 7.1250 -0.0000 -0.0000 -16.3228 -30.5698 -5.9705
0.00 0.00 0.00 -4.1994 -31.4172 3.7993 0.0000 0.0000 0.0000 -5.2197 0.0018 -50.0207 14.9505 19.3774 75.0875 -4.6625 -36.2136 4.3866 0.3006 3.5250 9.7439 0.0000 0.0000 0.0000 18.1145 -21.5037 -56.3245 -19.6395 -19.9969 88.9461 0.5462 18.8019 -7.6960 -1.1937 6.9328 -19.5163 1.2696 4.6066 28.2173 0.2061 6.1574 4.9946 -2.6707 2.7710 -9.8233 -8.8913 2.0113 -28.9913 1.5482 6.5144 28.2985 3.3991 1.9890 14.2136 -0.0000 0.0000 0.0000 -75.3216 -11.6874 70.0476 38.0166 -46.8499 -16.9777 -0.0000 -0.0000 15.7945 41.1946 14.6218 12.4593 -7.1250 0.0000 -0.0000 13.4665 48.6278 1.2255 -0.0000 0.0000 0.0000 83.2747 32.8568 51.8075 -29.8322 40.7491 -11.2999 0.0000 0.0000 8.1526 -44.7803 -0.6532 0.6482 7.1250 -0.0000 -0.0000 -14.3739 -30.7082 -5.1635
